<?xml version="1.0" encoding="UTF-8"?>
<svg width="342px" height="131px" viewBox="0 0 342 131" version="1.1" xmlns="http://www.w3.org/2000/svg" xmlns:xlink="http://www.w3.org/1999/xlink">
    <!-- Generator: Sketch 49 (51002) - http://www.bohemiancoding.com/sketch -->
    <title>logo-type</title>
    <desc>Created with Sketch.</desc>
    <defs></defs>
    <g id="Page-1" stroke="none" stroke-width="1" fill="none" fill-rule="evenodd">
        <g id="logo-type" fill="#00507C">
            <g id="logo">
                <g id="ferry" transform="translate(0.000000, 65.500000)">
                    <path d="M0,65.5 C39.3333333,58.1102564 66.6666667,56.0948718 82,59.4538462 C74,56.0948718 61.6666667,55.0871795 45,56.4307692 C28.3333333,57.774359 13.3333333,60.7974359 0,65.5 Z" id="Path-11"></path>
                    <path d="M106,58.4461538 C76.6666667,49.0410256 48.3333333,48.0333333 21,55.4230769 C45.6666667,39.3 73.6666667,30.2307692 105,28.2153846 L131,28.2153846 C128,48.3692308 106,44.3384615 106,58.4461538 Z" id="Path-8"></path>
                    <path d="M109,23.1769231 C109.136338,6.64925547 95.4696711,5.30566573 68,19.1461538 C53.3333333,26.5358974 40.6666667,35.6051282 30,46.3538462 C73.3333333,16.7948718 99.6666667,9.06923077 109,23.1769231 Z" id="Path-9"></path>
                    <path d="M42,31.2384615 C68.6666667,7.05384615 84.3333333,0.671794872 89,12.0923077 C89.6666667,2.42028619e-14 84,-2.68717949 72,4.03076923 C60,10.7487179 50,19.8179487 42,31.2384615 Z" id="Path-10"></path>
                </g>
                <path d="M41.5583008,81.0808398 L40.1750151,91.2714952 C37.537945,94.473345 34.8154851,97.9288236 32.0076354,101.637931 L32.0076354,56.9172414 L16.0038177,56.9172414 L16.0038177,47.7698276 L24.0057266,47.7698276 L24.0057266,42.687931 L38.009067,42.687931 L40.0095443,51.8353448 L40.0095443,61.9991379 L44.0104987,61.9991379 L44.0104987,63.0155172 L42.0790034,77.2448276 L42.0100215,77.2448276 L40.0095443,78.2612069 L40.0095443,80.2939655 L41.5583008,81.0808398 Z M46.0109759,81.3103448 L46.0109759,84.4428928 L46.0109759,81.3103448 L46.0109759,81.3103448 Z M46.0109759,77.2448276 L46.0109759,61.9991379 L46.0109759,77.2448276 L46.0109759,77.2448276 Z M51.8524061,78.1799152 L50.0119303,77.2448276 L49.9429484,77.2448276 L48.0114531,63.0155172 L48.0114531,61.9991379 L61.014555,61.9991379 L61.014555,42.687931 L79.0188499,42.687931 L79.0188499,60.9827586 C71.7469666,61.4174191 62.6914853,67.1498047 51.8524061,78.1799152 Z M48.0114531,57.9336207 L48.0114531,51.8353448 L51.0121689,36.5896552 L55.0131234,34.5568966 L55.0131234,33.5405172 L58.0138392,32.5241379 L55.0131234,31.5077586 L54.0128848,29.475 L49.0116917,28.4586207 L49.0116917,27.4422414 L50.0119303,26.4258621 L47.0112145,25.4094828 L46.0109759,19.3112069 L46.0109759,10.1637931 L52.0124075,10.1637931 L52.0124075,9.14741379 L58.0138392,3.04913793 L58.0138392,7.10542736e-15 L61.014555,7.10542736e-15 L61.014555,3.04913793 L67.0159866,9.14741379 L67.0159866,10.1637931 L73.0174183,10.1637931 L73.0174183,38.6224138 L57.0136006,38.6224138 L57.0136006,57.9336207 L48.0114531,57.9336207 Z M108.02577,66.0646552 L111.026485,66.0646552 L114.027201,61.9991379 L127.030303,61.9991379 L127.030303,89.4413793 L114.027201,89.4413793 C114.027201,80.2939655 112.026724,74.5344828 108.02577,72.162931 L108.02577,66.0646552 Z M0,117.9 L0,74.1956897 L4.00095443,74.1956897 L6.00143164,60.9827586 L28.006681,60.9827586 L28.006681,105.703448 L20.0047721,117.9 L0,117.9 Z M83.0198043,28.4586207 L104.024815,45.737069 L104.024815,70.1301724 C100.023861,69.4525862 96.3563191,69.4525862 93.0221904,70.1301724 C93.0221904,64.0318966 89.6880617,60.9827586 83.0198043,60.9827586 L83.0198043,28.4586207 Z M46.0109759,19.3112069 L46.0109759,57.9336207 L44.0104987,57.9336207 L44.0104987,51.8353448 L41.0097829,36.5896552 L37.0088284,34.5568966 L37.0088284,33.5405172 L34.0081126,32.5241379 L37.0088284,31.5077586 L38.009067,29.475 L43.0102601,28.4586207 L43.0102601,27.4422414 L42.0100215,26.4258621 L45.0107373,25.4094828 L46.0109759,19.3112069 Z M42.0100215,36.5896552 L44.0104987,47.7698276 L44.0104987,36.5896552 L42.0100215,36.5896552 Z" id="Combined-Shape"></path>
                <g id="Group" transform="translate(41.681818, 37.284615)">
                    <polygon id="Path-14" points="3.96969697 27.721045 1.98484848 41.0682148 3.96969697 41.0682148"></polygon>
                    <polygon id="Path-15" points="3.96969697 45.1750363 3.96969697 49.2818578 0 54.4153846 1.48863636 45.1750363"></polygon>
                    <polygon id="Path-16" points="6.9469697 0 8.93181818 0 6.9469697 11.2937591"></polygon>
                    <polygon id="Path-15-Copy" transform="translate(6.946970, 46.201742) scale(-1, 1) translate(-6.946970, -46.201742) " points="7.93939394 45.1750363 7.93939394 47.228447 5.95454545 45.1750363"></polygon>
                    <polygon id="Path-14-Copy" transform="translate(6.946970, 34.394630) scale(-1, 1) translate(-6.946970, -34.394630) " points="7.93939394 27.721045 5.95454545 41.0682148 7.93939394 41.0682148"></polygon>
                </g>
            </g>
            <g id="type-copy" transform="translate(139.000000, 15.000000)">
                <g id="ADVISORS" transform="translate(0.000000, 79.000000)">
                    <path d="M199.936096,2.09006831 L198.870021,3.78225135 C193.758129,0.561759487 187.942144,2.04234317 187.942144,5.6179654 C187.942144,7.73634685 188.731904,8.34045213 191.786671,9.12152015 C191.829007,9.13234511 192.316521,9.25629209 192.463177,9.29403668 C192.730378,9.36280525 192.953003,9.42178721 193.168578,9.48148184 C193.338849,9.52863135 193.517376,9.57579691 193.711001,9.62500569 C193.878253,9.66751186 194.053807,9.71082302 194.26272,9.76135063 C194.395358,9.79343036 194.540759,9.82826624 194.820088,9.89512752 C199.239546,10.9553825 200.944837,12.1698477 200.944837,15.8088266 C200.944837,18.4578669 198.834916,20.8221384 195.811827,21.6662779 C192.519508,22.5855945 188.69391,21.6339033 185.216432,18.7208464 L186.50074,17.1876956 C189.48958,19.6914236 192.640553,20.4752887 195.273941,19.7399656 C197.487659,19.1218275 198.944837,17.4889867 198.944837,15.8088266 C198.944837,13.402398 197.968765,12.7072642 194.353514,11.8399436 C194.075575,11.7734159 193.927641,11.7379733 193.792557,11.705302 C193.57672,11.6530999 193.394016,11.6080247 193.218371,11.5633854 C193.011692,11.510859 192.819641,11.4601205 192.634845,11.408949 C192.432532,11.3529267 192.221048,11.2968964 191.964688,11.2309178 C191.821445,11.1940519 191.336126,11.0706627 191.291233,11.059184 C187.451671,10.077453 185.942144,8.92278214 185.942144,5.6179654 C185.942144,0.1214225 193.68323,-1.84923703 199.936096,2.09006831 Z" id="Path-17" fill-rule="nonzero"></path>
                    <path d="M167.467767,12.9515275 C167.207243,12.972619 166.940226,12.9888372 166.666667,13 L160.59596,13 L160.59596,22 L158.59596,22 L158.59596,13 L158.59596,0 L166.666667,0 C172.877719,0 175.747475,3.01550954 175.747475,6.5 C175.747475,9.29212278 173.784158,11.7615294 169.527183,12.6589789 L177,22 L174.747475,22 L167.439033,12.9558031 L167.467767,12.9515275 Z M160.59596,2 L160.59596,11.0001191 L166.625761,11.000837 C171.767666,10.7903282 173.747475,8.7730077 173.747475,6.5 C173.747475,4.09852554 171.750381,2 166.666667,2 L160.59596,2 Z" id="Combined-Shape"></path>
                    <path d="M137.373737,20 C142.41014,20 146.484848,15.9660382 146.484848,11 C146.484848,6.03396178 142.41014,2 137.373737,2 C132.337335,2 128.262626,6.03396178 128.262626,11 C128.262626,15.9660382 132.337335,20 137.373737,20 Z M137.373737,22 C131.23724,22 126.262626,17.0751322 126.262626,11 C126.262626,4.92486775 131.23724,0 137.373737,0 C143.510235,0 148.484848,4.92486775 148.484848,11 C148.484848,17.0751322 143.510235,22 137.373737,22 Z" id="Oval-2" fill-rule="nonzero"></path>
                    <path d="M115.142774,2.09006831 L114.076699,3.78225135 C108.964807,0.561759487 103.148821,2.04234317 103.148821,5.6179654 C103.148821,7.73634685 103.938582,8.34045213 106.993348,9.12152015 C107.035685,9.13234511 107.523198,9.25629209 107.669855,9.29403668 C107.937055,9.36280525 108.15968,9.42178721 108.375256,9.48148184 C108.545527,9.52863135 108.724054,9.57579691 108.917679,9.62500569 C109.08493,9.66751186 109.260484,9.71082302 109.469397,9.76135063 C109.602035,9.79343036 109.747437,9.82826624 110.026765,9.89512752 C114.446224,10.9553825 116.151515,12.1698477 116.151515,15.8088266 C116.151515,18.4578669 114.041594,20.8221384 111.018504,21.6662779 C107.726186,22.5855945 103.900588,21.6339033 100.423109,18.7208464 L101.707418,17.1876956 C104.696258,19.6914236 107.84723,20.4752887 110.480619,19.7399656 C112.694336,19.1218275 114.151515,17.4889867 114.151515,15.8088266 C114.151515,13.402398 113.175443,12.7072642 109.560192,11.8399436 C109.282252,11.7734159 109.134319,11.7379733 108.999235,11.705302 C108.783398,11.6530999 108.600694,11.6080247 108.425049,11.5633854 C108.21837,11.510859 108.026319,11.4601205 107.841523,11.408949 C107.63921,11.3529267 107.427726,11.2968964 107.171366,11.2309178 C107.028123,11.1940519 106.542804,11.0706627 106.49791,11.059184 C102.658348,10.077453 101.148821,8.92278214 101.148821,5.6179654 C101.148821,0.1214225 108.889908,-1.84923703 115.142774,2.09006831 Z" id="Path-17" fill-rule="nonzero"></path>
                    <polygon id="Path-30" fill-rule="nonzero" points="87.8888889 0 89.8888889 0 89.8888889 22 87.8888889 22"></polygon>
                    <polygon id="Rectangle-5-Copy" points="57.5757576 0 59.5959596 0 67.6767677 19 75.7575758 1.97897254e-14 77.7777778 0 68.6868687 22 66.6666667 22"></polygon>
                    <path d="M31.3232323,0 L39.8653199,0 C43.6270685,0 46.2846479,1.67448028 47.8765012,4.525678 C48.9864216,6.51367683 49.4848485,8.92969779 49.4848485,11 C49.4848485,16.5764305 46.6326903,21.5301789 39.8653199,22 L31.3232323,22 L31.3232323,0 Z M33.3232323,2 L33.3232323,20.0003247 L39.7957053,20.002426 C45.200369,19.6252679 47.4848485,15.6574877 47.4848485,11 C47.4848485,6.12797354 45.180158,2 39.8653199,2 L33.3232323,2 Z" id="Path-20-Copy" fill-rule="nonzero"></path>
                    <path d="M16.7676768,16 L4.74747475,16 L2.02020202,22 L0,22 L10.1010101,0 L12.1212121,0 L21.2121212,22 L19.1919192,22 L16.7676768,16 Z M15.959596,14 L11.1111111,2 L5.65656566,14 L15.959596,14 Z" id="Combined-Shape"></path>
                </g>
                <g id="INVESTMENT" transform="translate(0.000000, 49.000000)">
                    <polygon id="Path-26-Copy" fill-rule="nonzero" points="99 1 103 1 103 23 99 23 99 3 101 5 91.9090909 5 91.9090909 1 110.090909 1 110.090909 5 101 5 103 3 103 23 99 23"></polygon>
                    <path d="M12.0909091,1.08842308 L12.1752585,1.0228835 L24.2525253,16.5663258 L24.2525253,1 L28.2525253,1 L28.2525253,23 L24.2525253,23 L24.2525253,22.9115769 L24.1681758,22.9771165 L12.0909091,7.43367422 L12.0909091,23 L8.09090909,23 L8.09090909,1 L12.0909091,1 L12.0909091,1.08842308 Z" id="Combined-Shape" fill-rule="nonzero"></path>
                    <polygon id="Path-24-Copy" fill-rule="nonzero" points="54.5555556 10 70.6969697 10 70.6969697 14 56.5555556 14 58.5555556 12 58.5555556 19 71.7070707 19 71.7070707 23 54.5555556 23 54.5555556 1 71.7070707 1 71.7070707 5 58.5555556 5 58.5555556 12 56.5555556 10 70.6969697 10 70.6969697 14 54.5555556 14"></polygon>
                    <path d="M131.323232,7.83812983 L124.215819,17.3673237 L117.141414,7.68579253 L117.141414,23 L113.141414,23 L113.141414,1 L117.141414,1 L117.141414,1.15762341 L117.261291,1.07002773 L124.248827,10.6326763 L131.323232,1.14773791 L131.323232,1 L131.433424,1 L131.467524,0.954279815 L131.528823,1 L135.323232,1 L135.323232,23 L131.323232,23 L131.323232,7.83812983 Z" id="Combined-Shape" fill-rule="nonzero"></path>
                    <polygon id="Path-26" fill-rule="nonzero" points="201 1 201 5 191.909091 5 193.909091 3 193.909091 23 189.909091 23 189.909091 3 191.909091 5 182.818182 5 182.818182 1 193.909091 1 193.909091 23 189.909091 23 189.909091 1"></polygon>
                    <path d="M89.9804723,3.33078119 L87.7771035,6.66921881 C82.6548851,3.28855472 78.7575758,4.14596278 78.7575758,8 C78.7575758,9.13791748 79.6567778,9.65720666 83.2986837,10.5585784 C85.768183,11.1697794 86.8125186,11.4971786 87.985043,12.1743115 C89.8196363,13.2337891 90.8787879,14.8440778 90.8787879,17 C90.8787879,20.9637779 87.9888894,23.3883538 83.8735597,23.74263 C80.3833921,24.0430879 76.3593192,22.835866 73.4956466,20.5678373 L75.9791009,17.4321627 C78.0427502,19.066573 81.0555923,19.9704256 83.5304808,19.75737 C85.7635184,19.5651346 86.8787879,18.6294424 86.8787879,17 C86.8787879,15.8620825 85.9795858,15.3427933 82.33768,14.4414216 C79.8681807,13.8302206 78.8238451,13.5028214 77.6513207,12.8256885 C75.8167274,11.7662109 74.7575758,10.1559222 74.7575758,8 C74.7575758,0.18737055 82.6026906,-1.53855472 89.9804723,3.33078119 Z" id="Path-25" fill-rule="nonzero"></path>
                    <polygon id="Path-24" fill-rule="nonzero" points="139.40404 10 155.545455 10 155.545455 14 141.40404 14 143.40404 12 143.40404 19 156.555556 19 156.555556 23 139.40404 23 139.40404 1 156.555556 1 156.555556 5 143.40404 5 143.40404 12 141.40404 10 155.545455 10 155.545455 14 139.40404 14"></polygon>
                    <polygon id="Rectangle-5" points="30.2929293 1 34.3333333 1 41.4040404 18 48.4747475 1 52.5151515 1 43.4242424 23 39.3838384 23"></polygon>
                    <path d="M163.606061,1.08842308 L163.69041,1.0228835 L175.767677,16.5663258 L175.767677,1 L179.767677,1 L179.767677,23 L175.767677,23 L175.767677,22.9115769 L175.683327,22.9771165 L163.606061,7.43367422 L163.606061,23 L159.606061,23 L159.606061,1 L163.606061,1 L163.606061,1.08842308 Z" id="Combined-Shape" fill-rule="nonzero"></path>
                    <polygon id="Path-21" fill-rule="nonzero" points="0.0101010101 1 4.01010101 1 4.01010101 23 0.0101010101 23"></polygon>
                </g>
                <g id="SOUND" transform="translate(1.000000, 0.000000)" fill-rule="nonzero">
                    <path d="M167.730769,0.5 L183.589744,0.5 C190.599293,0.5 195.526738,3.5983991 198.488558,8.89265252 C200.564477,12.6033569 201.5,17.1289502 201.5,21 C201.5,24.8009441 200.570229,29.124381 198.478766,32.7495837 C195.541948,37.8400682 190.663608,41.0109891 183.693955,41.4963756 L183.589744,41.5 L167.730769,41.5 L167.730769,0.5 Z M170.730769,38.5 L183.536752,38.5 C189.461871,38.0740949 193.439438,35.4810858 195.880209,31.2504163 C197.678856,28.1327618 198.5,24.3144405 198.5,21 C198.5,17.601819 197.665872,13.566725 195.870416,10.3573475 C193.422605,5.98188545 189.475614,3.5 183.589744,3.5 L170.730769,3.5 L170.730769,38.5 Z" id="Path-20"></path>
                    <path d="M125.377963,3.274081 C125.363097,3.2597667 125.350709,3.24830767 125.341026,3.23987001 C125.34451,3.24290541 125.347969,3.24591164 125.351405,3.24888883 L125.377963,3.274081 Z M127.653846,41.5 L124.653846,41.5 L124.653846,0.5 L126.153846,0.5 C127.439856,0.5 126.295284,-0.97929273 142.222338,20.0956133 C147.603038,27.2154314 149.855781,30.1821667 152.147891,33.1445847 C153.012616,34.262192 153.762141,35.2199921 154.397436,36.0184113 L154.397436,0.5 L157.397436,0.5 L157.397436,41.5 L155.897436,41.5 C154.611426,41.5 155.755998,42.9792927 139.828944,21.9043867 C134.448244,14.7845686 132.195501,11.8178333 129.903391,8.85541531 C129.038666,7.73780803 128.289141,6.7800079 127.653846,5.98158874 L127.653846,41.5 Z" id="Path-19"></path>
                    <path d="M112.346154,0.5 L115.346154,0.5 L115.346154,27.68095 L115.340765,27.8079828 C114.587287,36.6730611 108.784418,41.3178429 98.4873434,41.4950126 C88.1608687,41.6726881 82.3335156,37.0083086 81.5818983,27.8030196 L81.5769231,0.5 L84.5769231,0.5 L84.5769231,27.6187462 C85.2113496,35.1208058 89.6402719,38.6467898 98.4357335,38.4954565 C107.258531,38.343653 111.711867,34.7989337 112.346154,27.6161093 L112.346154,0.5 Z" id="Path-18"></path>
                    <path d="M54.3589744,38 C64.0477989,38 71.8717949,30.3716039 71.8717949,21 C71.8717949,11.6283961 64.0477989,4 54.3589744,4 C44.6701498,4 36.8461538,11.6283961 36.8461538,21 C36.8461538,30.3716039 44.6701498,38 54.3589744,38 Z M54.3589744,41 C43.0300564,41 33.8461538,32.045695 33.8461538,21 C33.8461538,9.954305 43.0300564,1 54.3589744,1 C65.6878923,1 74.8717949,9.954305 74.8717949,21 C74.8717949,32.045695 65.6878923,41 54.3589744,41 Z" id="Oval"></path>
                    <path d="M26.4318536,4.7254055 L24.8501977,7.2745945 C14.9463572,1.12971166 3.55128205,3.98661979 3.55128205,11 C3.55128205,15.1582958 5.18560932,16.3894879 11.1197804,17.8837965 C11.200454,17.9041113 12.1229137,18.1350869 12.3998465,18.2052804 C12.9034529,18.3329282 13.3226119,18.4422971 13.7279903,18.552849 C14.0533166,18.6415698 14.3940696,18.7302299 14.7633067,18.822648 C15.0816588,18.9023297 15.4154725,18.9834376 15.8123921,19.0779818 C15.9687169,19.1152176 16.0759423,19.1406039 16.3399153,19.202932 C16.6040289,19.2652079 16.6040289,19.2652079 16.8682843,19.327573 C20.8316739,20.2640076 22.67356,20.8781573 24.4624497,22.1328561 C26.9050949,23.8460887 28.1666667,26.3983182 28.1666667,30 C28.1666667,34.7687611 24.2952353,39.0411621 18.7310681,40.5713081 C12.6342957,42.2479205 5.53092103,40.5075937 -0.954574432,35.1570599 L0.954574432,32.8429401 C6.71045828,37.5915443 12.8144222,39.0870154 17.9355986,37.6786919 C22.2852245,36.4825448 25.1666667,33.3026675 25.1666667,30 C25.1666667,25.2962813 23.1769542,23.9007286 16.1784637,22.2471873 C15.9158351,22.1852062 15.9158351,22.1852062 15.6509724,22.1227535 C15.3850725,22.0599707 15.2760014,22.0341474 15.1172553,21.9963349 C14.7100817,21.8993483 14.3656781,21.8156673 14.0348932,21.7328737 C13.6463162,21.635615 13.2855259,21.5417413 12.9386764,21.447151 C12.5529506,21.3419585 12.1502984,21.2368967 11.662753,21.1133198 C11.3908777,21.0444082 10.4716682,20.8142464 10.3872072,20.7929779 C6.96352124,19.9308452 5.28264474,19.3267961 3.71914963,18.1489642 C1.6183682,16.566377 0.551282051,14.2466502 0.551282051,11 C0.551282051,1.09909449 14.8210846,-2.47854887 26.4318536,4.7254055 Z" id="Path-17"></path>
                </g>
            </g>
        </g>
    </g>
</svg>